<?xml version="1.0" standalone="no"?>
<!DOCTYPE svg PUBLIC "-//W3C//DTD SVG 1.1//EN" "http://www.w3.org/Graphics/SVG/1.1/DTD/svg11.dtd">
<svg width="100%" height="100%" viewBox="0 0 848 849" version="1.1" xmlns="http://www.w3.org/2000/svg" xmlns:xlink="http://www.w3.org/1999/xlink" xml:space="preserve" style="fill-rule:evenodd;clip-rule:evenodd;stroke-linecap:round;stroke-linejoin:round;stroke-miterlimit:1.41421;">
    <g transform="matrix(1,0,0,1,-59.6527,-59.9792)">
        <g>
            <g transform="matrix(1.06659,0,0,1.06659,105.09,-37.3773)">
                <circle cx="354.783" cy="489.293" r="118.056" style="fill:black;"/>
            </g>
            <g transform="matrix(2.19018,0,0,2.19018,-293.539,-587.139)">
                <circle cx="354.783" cy="489.293" r="118.056" style="fill:none;stroke-width:45.66px;stroke:black;"/>
            </g>
            <g transform="matrix(4.39087e-16,1.55003,-1.5304,4.33527e-16,1226.96,560.123)">
                <path d="M224.937,485.797C224.937,465.958 209.034,449.85 189.446,449.85L143.906,449.85C124.318,449.85 108.414,465.958 108.414,485.797C108.414,505.637 124.318,521.744 143.906,521.744L189.446,521.744C209.034,521.744 224.937,505.637 224.937,485.797Z" style="fill:black;"/>
            </g>
            <g transform="matrix(4.39087e-16,1.55003,-1.52984,4.3337e-16,1226.67,-108.066)">
                <path d="M224.937,485.797C224.937,465.958 209.04,449.85 189.459,449.85L143.893,449.85C124.312,449.85 108.414,465.958 108.414,485.797C108.414,505.637 124.312,521.744 143.893,521.744L189.459,521.744C209.04,521.744 224.937,505.637 224.937,485.797Z" style="fill:black;"/>
            </g>
            <g transform="matrix(-1.55003,8.78174e-16,-8.67139e-16,-1.53055,408.312,1228.04)">
                <path d="M224.937,485.797C224.937,465.958 209.033,449.85 189.442,449.85L143.91,449.85C124.319,449.85 108.414,465.958 108.414,485.797C108.414,505.637 124.319,521.744 143.91,521.744L189.442,521.744C209.033,521.744 224.937,505.637 224.937,485.797Z" style="fill:black;"/>
            </g>
            <g transform="matrix(-1.55003,8.78174e-16,-8.67268e-16,-1.53078,1075.18,1228.16)">
                <path d="M224.937,485.797C224.937,465.958 209.03,449.85 189.437,449.85L143.915,449.85C124.322,449.85 108.414,465.958 108.414,485.797C108.414,505.637 124.322,521.744 143.915,521.744L189.437,521.744C209.03,521.744 224.937,505.637 224.937,485.797Z" style="fill:black;"/>
            </g>
        </g>
    </g>
</svg>
